<svg version="1.1" id="Layer_1" xmlns="http://www.w3.org/2000/svg" xmlns:xlink="http://www.w3.org/1999/xlink" x="0px" y="0px"
	 width="100%" viewBox="0 0 1024 1024" enable-background="new 0 0 1024 1024" xml:space="preserve">
<path fill="#000000" opacity="1.000000" stroke="none" 
	d="
M851.066956,585.777222 
	C867.711853,592.221252 882.875732,600.448303 894.795654,613.472107 
	C905.268738,624.914856 914.236450,637.415222 918.587097,652.668030 
	C922.645935,666.897278 922.967590,681.281433 921.556335,695.945679 
	C919.482849,717.491821 909.660522,735.301941 895.103210,750.395203 
	C880.168396,765.879883 861.810181,775.952698 840.753662,781.405151 
	C827.570923,784.818726 814.292480,785.060364 801.101624,784.063538 
	C786.796936,782.982422 773.159302,778.375793 760.369690,771.582275 
	C738.622559,760.030823 722.261719,743.393921 712.117737,720.839844 
	C704.699219,704.345703 701.332581,686.795288 704.299255,669.171326 
	C707.322388,651.211853 713.864990,634.044678 726.644470,620.175171 
	C729.909241,616.632019 732.432007,612.446716 736.226013,609.366943 
	C738.425598,607.581482 737.531128,605.724731 736.389893,603.628418 
	C729.487671,590.950867 722.701721,578.209900 715.889709,565.483215 
	C708.606873,551.876953 701.932922,537.955383 694.073242,524.644409 
	C685.106628,509.458984 671.627625,500.098022 655.859558,493.216370 
	C647.820618,489.707947 641.738159,494.136902 635.548462,497.525391 
	C619.783203,506.155975 608.339600,518.601685 600.470520,535.108826 
	C591.407166,554.121155 580.643372,572.322205 570.642761,590.888916 
	C568.367310,595.113403 566.384705,599.508362 563.906067,603.606262 
	C562.175171,606.468018 562.720520,608.327332 564.971069,610.557129 
	C577.017517,622.492126 586.740601,636.021484 591.569763,652.473450 
	C595.888062,667.185242 597.550476,681.940369 594.756531,697.491150 
	C592.353394,710.866455 587.976746,722.951477 580.869446,734.367249 
	C570.532166,750.970886 556.164185,762.909729 539.066895,771.952209 
	C518.543274,782.806763 496.393433,787.050476 473.794006,783.926880 
	C436.131409,778.721497 406.308319,760.475159 387.975128,725.952698 
	C378.661804,708.415100 375.093719,689.392761 378.052002,670.135620 
	C383.687164,633.453430 403.997375,606.806641 437.676605,590.824341 
	C457.507965,581.413452 478.407074,577.765198 500.283630,580.713379 
	C504.573639,581.291504 507.324371,580.082336 509.496552,575.996521 
	C521.341248,553.717468 533.375061,531.537598 545.508423,509.413849 
	C555.416321,491.347900 565.567749,473.415588 575.580994,455.407257 
	C577.673462,451.644135 579.246582,447.525635 581.756531,444.078796 
	C584.641296,440.117188 582.070312,436.640900 581.366028,433.242188 
	C578.424072,419.045319 575.460205,404.812164 571.486145,390.882782 
	C568.230164,379.470428 566.659485,367.736450 563.469360,356.312775 
	C559.543152,342.253448 556.784058,327.865753 553.598877,313.602509 
	C549.555176,295.495117 545.678284,277.350098 541.556335,259.260773 
	C539.255127,249.161713 536.497864,239.167236 534.137085,229.080948 
	C531.515015,217.878006 529.176514,206.608963 526.594055,195.396469 
	C523.527405,182.081390 520.281128,168.807678 517.208618,155.493927 
	C514.623413,144.291885 512.476135,132.979446 509.565643,121.865005 
	C507.484467,113.917526 505.862213,105.866982 503.629303,97.943932 
	C500.637787,87.329269 498.731140,76.412735 496.205292,65.661850 
	C493.806000,55.449589 491.116089,45.305359 488.742584,35.087402 
	C487.716370,30.669567 487.164124,26.141634 487.362915,21.369310 
	C541.354492,120.000427 595.346130,218.631546 650.083984,318.626007 
	C704.726318,218.708771 758.692505,120.027878 812.953491,20.807980 
	C815.560608,25.443378 812.486511,29.255529 811.720093,32.854462 
	C809.322937,44.110973 806.264038,55.220856 803.971924,66.529976 
	C801.748535,77.500069 798.466858,88.251404 795.876343,99.152626 
	C793.474060,109.262177 791.399475,119.449211 789.129456,129.590683 
	C786.069336,143.261536 783.212280,156.984634 779.806885,170.569687 
	C775.758423,186.719757 772.711548,203.095764 768.699768,219.230606 
	C766.004150,230.071716 762.978699,240.885895 760.843262,251.814667 
	C758.280151,264.932251 754.961670,277.856049 752.017700,290.866821 
	C749.516296,301.921478 747.369141,313.059143 744.369812,324.022217 
	C741.426514,334.780426 739.557922,345.829895 737.109619,356.727264 
	C735.380005,364.425812 733.752747,372.165924 731.554688,379.734985 
	C729.665894,386.239288 728.574463,392.884674 727.073425,399.454559 
	C725.204041,407.636505 723.344177,415.820892 721.409912,423.987549 
	C720.160950,429.260529 718.760620,434.497406 717.481506,439.763458 
	C717.049622,441.541565 718.077332,443.076233 718.895203,444.421448 
	C728.041382,459.464355 736.040100,475.137451 744.440186,490.590485 
	C759.821838,518.886780 775.260742,547.151917 790.669983,575.433228 
	C792.621582,579.015015 794.988220,581.723816 799.691956,580.681458 
	C813.889587,577.535278 827.759583,580.014893 841.573486,583.260071 
	C844.633728,583.979065 847.814392,584.252502 851.066956,585.777222 
M423.370239,703.031494 
	C426.282288,711.563232 431.248840,718.966675 437.698883,724.975464 
	C455.767456,741.807922 476.970734,748.065979 501.506195,743.071838 
	C518.439209,739.625122 532.077087,731.419983 542.241333,717.508850 
	C555.401978,699.496643 557.908630,679.861511 549.318054,659.439331 
	C540.731628,639.027039 524.548462,626.882629 503.308167,621.702026 
	C494.000183,619.431885 484.644531,619.013184 474.770691,620.702332 
	C457.038391,623.735840 442.906769,631.988831 431.976746,645.731140 
	C418.436981,662.754700 417.184082,682.024048 423.370239,703.031494 
M769.621033,635.113464 
	C753.511597,648.087463 745.801270,664.576233 746.922546,685.566772 
	C747.538086,697.090698 750.567566,707.206360 757.309326,716.512756 
	C770.569336,734.816895 788.846191,743.341248 810.916809,744.683960 
	C817.241028,745.068726 823.435547,744.227783 829.690979,742.898315 
	C853.888062,737.755859 872.031372,720.555847 878.395569,698.369629 
	C882.615356,683.658813 881.604675,668.609436 873.761536,654.572693 
	C864.301086,637.641357 850.215820,626.727173 831.607300,622.101257 
	C822.046204,619.724548 812.410645,618.681213 802.140991,620.676453 
	C790.165161,623.003052 779.651917,627.323669 769.621033,635.113464 
M653.370361,452.824188 
	C654.534790,452.823517 655.700073,452.851318 656.863525,452.817413 
	C662.890625,452.641968 663.670898,451.852234 663.703735,445.738617 
	C663.727844,441.247498 663.633606,436.755402 663.689453,432.264984 
	C663.723328,429.544800 662.515564,428.295807 659.794189,428.327759 
	C655.968933,428.372620 652.142517,428.310822 648.316589,428.312805 
	C636.404541,428.318909 638.161255,427.555420 638.074158,438.339294 
	C637.957092,452.840424 637.976379,452.840576 653.370361,452.824188 
z"/>
<path fill="#000000" opacity="1.000000" stroke="none" 
	d="
M104.730461,322.999939 
	C104.729614,298.001648 104.748634,273.503296 104.721626,249.005051 
	C104.705627,234.495026 110.621788,222.206131 119.441429,211.271240 
	C134.067932,193.136810 153.666229,185.780045 176.557983,185.824341 
	C223.221252,185.914597 269.884796,185.870224 316.548218,185.890625 
	C323.778564,185.893784 324.087646,186.206955 324.099854,193.582703 
	C324.120239,205.914703 324.124725,218.246796 324.100800,230.578796 
	C324.086273,238.065536 323.863647,238.257706 316.141602,238.261383 
	C274.311218,238.281311 232.480789,238.337692 190.650497,238.282669 
	C182.176605,238.271530 174.411667,239.988663 168.217346,246.146149 
	C164.086060,250.252899 161.322159,255.013840 162.201370,261.158203 
	C164.422668,262.318787 166.625092,261.910461 168.749924,261.912811 
	C217.579712,261.966431 266.409515,261.988098 315.239319,262.025482 
	C323.688019,262.031952 324.034515,262.396027 324.001129,270.695435 
	C323.982361,275.361572 323.950134,280.027710 323.954102,284.693848 
	C323.956543,287.570709 322.554352,289.008087 319.683319,289.021576 
	C318.016968,289.029388 316.350586,289.039703 314.684235,289.040497 
	C265.520996,289.063843 216.357773,289.079498 167.194550,289.116364 
	C160.551498,289.121368 159.658218,290.366028 160.486008,296.721344 
	C161.054947,301.089417 163.998810,300.831909 167.068710,300.831085 
	C195.400070,300.823456 223.731445,300.832794 252.062805,300.835419 
	C273.894623,300.837463 295.727173,300.931305 317.557678,300.762299 
	C322.238586,300.726044 324.322968,302.159332 324.035004,307.051819 
	C323.751617,311.867340 323.918671,316.715546 324.028961,321.546204 
	C324.121155,325.582794 322.228943,327.289917 318.267151,327.237030 
	C311.935547,327.152496 305.601807,327.231110 299.268982,327.233612 
	C255.105392,327.251068 210.941818,327.272491 166.778229,327.271729 
	C163.288055,327.271667 160.050369,327.027374 160.300827,332.266998 
	C160.565506,337.804413 160.907272,338.298645 166.727036,338.288605 
	C211.722519,338.211029 256.718140,338.136688 301.713531,338.197693 
	C307.534332,338.205597 313.358063,338.837677 319.191437,338.452362 
	C322.400848,338.240387 323.905975,340.062408 323.969543,342.920837 
	C324.102844,348.915710 323.990936,354.916962 323.924133,360.915009 
	C323.892303,363.774963 322.350342,365.150269 319.493744,365.106995 
	C317.994537,365.084259 316.494385,365.135681 314.994659,365.136169 
	C265.833191,365.152618 216.671738,365.162689 167.510284,365.186554 
	C160.811325,365.189819 159.900757,366.250641 160.426910,372.135101 
	C160.781555,376.101318 162.930908,376.921906 166.464447,376.906830 
	C188.462494,376.812988 210.461182,376.869385 232.459656,376.871826 
	C260.624359,376.874969 288.789093,376.867493 316.953796,376.880219 
	C323.673248,376.883270 323.900787,377.143433 323.912628,383.986084 
	C323.920410,388.485199 323.791412,392.989624 323.970154,397.481873 
	C324.141083,401.776733 322.350128,403.324463 318.039032,403.297974 
	C297.874756,403.173950 277.709045,403.297424 257.543823,403.310150 
	C227.545944,403.329041 197.548050,403.312592 167.550201,403.349152 
	C160.241684,403.358063 159.206589,404.751678 160.429703,411.944366 
	C160.739090,413.763885 161.527283,414.648987 163.294403,414.706635 
	C164.959427,414.760986 166.626175,414.782379 168.292191,414.783295 
	C217.455399,414.809692 266.618591,414.829926 315.781799,414.856384 
	C323.555878,414.860565 323.918549,415.241425 323.895050,423.108917 
	C323.881592,427.608368 323.850952,432.107849 323.864014,436.607208 
	C323.872925,439.678192 322.498718,441.237793 319.315765,441.153992 
	C316.485016,441.079468 313.650146,441.167572 310.817108,441.168823 
	C262.987091,441.189758 215.157074,441.207092 167.327057,441.230072 
	C163.946701,441.231720 160.476105,440.837311 160.329941,445.970581 
	C160.154587,452.129486 160.678818,452.892792 166.892059,452.894379 
	C216.555267,452.907013 266.218475,452.908722 315.881683,452.916809 
	C323.875854,452.918121 323.920074,452.968933 323.928467,461.015259 
	C323.932648,465.014954 323.956085,469.014801 323.931610,473.014343 
	C323.894470,479.089844 323.200836,479.774414 316.963165,479.902283 
	C314.630859,479.950104 312.296997,479.928894 309.963867,479.928131 
	C262.300598,479.912354 214.637360,479.889282 166.974106,479.884705 
	C160.593323,479.884094 160.377045,480.381073 160.291748,486.154419 
	C160.213547,491.449463 163.671783,490.950317 167.032669,490.951782 
	C216.529129,490.973297 266.025604,490.999054 315.522064,491.001404 
	C323.615051,491.001770 324.000244,491.339508 323.964996,499.428314 
	C323.947540,503.427948 323.789001,507.435028 323.977509,511.425323 
	C324.178650,515.683228 322.515869,517.349304 318.143463,517.301575 
	C302.813171,517.134338 287.479706,517.257751 272.147461,517.260681 
	C237.149887,517.267273 202.152283,517.286804 167.154770,517.244019 
	C163.291550,517.239258 160.324432,517.496094 160.265152,522.683777 
	C160.211639,527.365173 161.567963,529.029785 166.499878,529.014648 
	C215.995926,528.862671 265.492676,528.939636 314.989227,528.952026 
	C322.947174,528.953979 323.067902,528.944458 323.688171,536.972168 
	C324.033997,541.448181 323.840088,545.963379 323.998901,550.457092 
	C324.144379,554.574036 322.042542,556.109863 318.169312,556.072205 
	C311.170471,556.004089 304.170532,556.051636 297.171051,556.052063 
	C253.842499,556.054810 210.513916,556.075623 167.185410,556.030396 
	C163.272766,556.026306 159.773209,555.702454 160.267426,561.520569 
	C160.707184,566.697510 161.336349,567.629211 167.583771,567.632385 
	C213.747086,567.655640 259.910400,567.647888 306.073730,567.644470 
	C310.406647,567.644165 314.742523,567.697144 319.071472,567.555237 
	C322.417175,567.445557 324.048370,568.807922 324.004395,572.223816 
	C323.931519,577.889221 323.932587,583.555725 323.940521,589.221802 
	C323.944855,592.306580 322.431091,593.843445 319.376587,593.903137 
	C317.877228,593.932434 316.377380,593.951294 314.877777,593.951965 
	C265.548035,593.975037 216.218246,594.014709 166.888535,593.979004 
	C162.970612,593.976196 160.142685,594.186646 160.243591,599.452026 
	C160.328110,603.861328 161.727951,605.072449 166.070419,605.061646 
	C215.566605,604.938538 265.063263,605.005249 314.559784,605.020142 
	C323.848724,605.022949 323.962921,605.136047 324.004395,614.550171 
	C324.023499,618.883057 324.019958,623.216187 324.068787,627.548767 
	C324.103607,630.640747 322.659637,632.198669 319.533234,632.154297 
	C318.367157,632.137756 317.200378,632.182800 316.033905,632.182556 
	C266.204102,632.173584 216.374207,632.198303 166.544632,632.086426 
	C162.425674,632.077209 160.138992,632.505005 160.210449,637.619385 
	C160.279877,642.589844 162.153183,643.959595 166.741074,643.951355 
	C216.404144,643.862000 266.067413,643.889099 315.730652,643.883240 
	C324.075897,643.882202 324.078857,643.879395 324.102722,652.014954 
	C324.115936,656.514465 324.095245,661.014160 324.131531,665.513428 
	C324.156464,668.606201 322.661194,670.143311 319.581055,670.161560 
	C318.247894,670.169495 316.914764,670.179688 315.581604,670.179443 
	C265.918457,670.170044 216.255325,670.159607 166.592178,670.149170 
	C160.955490,670.147949 158.521118,673.915649 160.602753,679.250854 
	C161.440811,681.398743 163.225739,681.085754 164.793350,681.038574 
	C182.284073,680.512939 199.756256,681.612610 217.261322,681.319763 
	C250.749893,680.759583 284.253784,681.135132 317.751190,681.063049 
	C322.041779,681.053772 324.256683,682.555725 324.065704,687.232666 
	C323.841583,692.720886 324.047119,698.228333 324.126282,703.726624 
	C324.171448,706.864014 322.714813,708.298828 319.577026,708.249756 
	C315.578461,708.187134 311.578003,708.253479 307.578339,708.253052 
	C261.081635,708.248108 214.584930,708.239563 168.088226,708.235901 
	C161.190521,708.235352 160.528412,709.154114 162.594238,715.780945 
	C165.201294,724.143982 174.467682,731.359924 183.705338,731.682007 
	C193.361176,732.018738 203.032715,731.978271 212.697357,731.976135 
	C247.194931,731.968445 281.692505,731.899292 316.190094,731.872253 
	C323.480682,731.866516 324.110077,732.538696 324.118042,739.950134 
	C324.131683,752.615845 323.994354,765.284119 324.220795,777.945923 
	C324.302734,782.528137 323.103546,784.446655 318.077179,784.430298 
	C267.914520,784.267090 217.745346,784.754456 167.590927,784.087402 
	C149.012604,783.840332 133.505753,775.036865 121.015869,761.105713 
	C113.041672,752.211304 108.587341,741.596191 105.284042,730.386841 
	C104.643326,728.212585 104.765297,725.773376 104.764832,723.456421 
	C104.738167,590.137573 104.735756,456.818787 104.730461,322.999939 
z"/>
<path fill="#000000" opacity="1.000000" stroke="none" 
	d="
M285.003998,935.367065 
	C281.508423,935.364929 278.511871,935.366882 275.515289,935.358704 
	C265.654755,935.331848 262.660248,932.387756 262.659271,922.678589 
	C262.656860,898.040100 262.664948,873.401550 262.669281,848.763062 
	C262.669830,845.600037 262.588684,842.434143 262.693420,839.274536 
	C262.891266,833.304138 266.482971,829.689392 272.478760,829.673523 
	C294.120544,829.616272 315.765228,829.454102 337.403412,829.741455 
	C349.308044,829.899536 360.000305,838.967834 359.497162,852.315247 
	C359.186523,860.556213 358.888885,868.562866 354.546906,875.842651 
	C352.598633,879.109192 355.561340,880.375244 357.198090,881.888062 
	C367.979614,891.853394 370.063782,904.304138 367.315277,917.912292 
	C365.200806,928.381226 356.216278,935.316772 345.434448,935.349121 
	C325.457458,935.408875 305.480164,935.366394 285.003998,935.367065 
M303.507904,892.356079 
	C289.388611,892.358276 289.388672,892.358276 289.652740,878.039062 
	C289.655823,877.872620 289.672577,877.704041 289.653229,877.539917 
	C289.223267,873.893433 290.773590,872.539185 294.481171,872.613892 
	C303.634430,872.798218 312.794250,872.685120 321.951233,872.651306 
	C334.196808,872.606140 339.992065,866.524475 339.711395,854.473755 
	C339.625702,850.794495 338.084015,849.350830 334.614594,849.355469 
	C318.631256,849.376892 302.647644,849.420471 286.664825,849.330261 
	C283.437195,849.312073 282.278809,850.509033 282.295166,853.738953 
	C282.391998,872.885193 282.388763,892.032349 282.302399,911.178711 
	C282.288391,914.283752 283.154724,915.702515 286.532288,915.683838 
	C305.345428,915.579712 324.159576,915.603760 342.973114,915.664368 
	C347.041840,915.677490 348.561523,913.686523 348.674286,909.832153 
	C348.978699,899.429260 342.442627,892.458801 331.975952,892.369751 
	C322.819489,892.291809 313.661835,892.354980 303.507904,892.356079 
z"/>
<path fill="#000000" opacity="1.000000" stroke="none" 
	d="
M692.661621,892.999878 
	C692.663208,875.334167 692.644958,858.168396 692.675781,841.002747 
	C692.690125,833.030701 695.986145,829.671875 703.813110,829.661682 
	C724.478638,829.634888 745.144409,829.717773 765.809509,829.627686 
	C777.965698,829.574707 790.427856,838.116028 789.520935,853.272278 
	C789.058105,861.007141 788.795471,868.565430 784.734497,875.352356 
	C782.659119,878.820801 785.346680,880.220764 787.170227,881.897766 
	C797.980713,891.840088 800.160278,904.292236 797.288086,917.916504 
	C795.029968,928.628052 786.304016,935.322449 775.367065,935.349121 
	C751.535278,935.407166 727.703064,935.381653 703.871155,935.344116 
	C696.124878,935.331970 692.696045,931.830322 692.667847,923.998169 
	C692.631226,913.832275 692.660706,903.666016 692.661621,892.999878 
M733.500183,849.357178 
	C727.838074,849.362976 722.174622,849.443848 716.514404,849.343323 
	C713.611450,849.291870 712.291504,850.301758 712.304321,853.390625 
	C712.385498,872.874390 712.378967,892.358765 712.321960,911.842712 
	C712.313721,914.649475 713.459412,915.667358 716.200012,915.659180 
	C735.350952,915.601929 754.502014,915.631165 773.653076,915.617859 
	C776.888428,915.615601 778.415649,913.962769 778.661865,910.712280 
	C779.475037,899.976013 772.668640,892.433105 761.824158,892.373108 
	C749.334656,892.304077 736.843933,892.286560 724.355103,892.401794 
	C721.041382,892.432312 719.390137,891.476257 719.612488,887.875244 
	C719.827515,884.391418 719.847839,880.870422 719.604004,877.390259 
	C719.335144,873.553833 721.039368,872.542664 724.605408,872.608337 
	C733.927917,872.780212 743.256165,872.704468 752.581543,872.644287 
	C764.013672,872.570618 769.587830,866.684875 769.735718,855.338440 
	C769.797485,850.597351 767.821289,849.248779 763.475708,849.320374 
	C753.819580,849.479614 744.158936,849.362000 733.500183,849.357178 
z"/>
<path fill="#000000" opacity="1.000000" stroke="none" 
	d="
M436.939117,935.365967 
	C427.125610,935.364868 417.802948,935.378296 408.480347,935.359436 
	C390.723206,935.323486 379.533691,924.243225 379.714539,906.417664 
	C379.817169,896.304993 378.669922,886.145752 380.639008,876.075012 
	C382.891235,864.556152 393.195404,855.760498 404.947205,855.668457 
	C417.099182,855.573242 429.252472,855.639343 441.405182,855.651245 
	C455.965332,855.665527 465.790985,862.953247 467.805481,877.444702 
	C469.469635,889.415710 469.365234,901.787354 467.793701,913.789734 
	C465.905029,928.214172 454.261902,934.725769 441.425018,935.355469 
	C440.096375,935.420654 438.761810,935.365356 436.939117,935.365967 
M435.422272,915.642517 
	C436.421875,915.642944 437.421448,915.645020 438.421051,915.643494 
	C447.198151,915.629761 448.634247,914.238708 448.655945,905.623779 
	C448.674805,898.126770 448.717865,890.628906 448.632477,883.132812 
	C448.567108,877.393250 446.537628,875.407593 440.710358,875.373718 
	C430.048187,875.311707 419.385437,875.340332 408.722961,875.356873 
	C402.447998,875.366577 399.623169,877.902283 399.427948,884.324280 
	C399.200287,891.814514 399.226471,899.320068 399.406891,906.812622 
	C399.553986,912.920288 402.365143,915.566895 408.454224,915.623962 
	C417.116730,915.705200 425.780579,915.643433 435.422272,915.642517 
z"/>
<path fill="#000000" opacity="1.000000" stroke="none" 
	d="
M552.042725,856.465881 
	C563.416138,859.257080 571.182739,869.240356 571.322205,881.062195 
	C571.432190,890.387085 571.375854,899.714417 571.341248,909.040466 
	C571.287292,923.580139 560.395203,934.943176 545.703247,935.290588 
	C533.219971,935.585815 520.720764,935.519958 508.234436,935.294250 
	C494.854248,935.052429 484.105652,925.232605 482.989655,910.618652 
	C482.109375,899.091553 481.546082,887.348328 483.693237,875.792725 
	C485.638336,865.324524 495.689697,856.036560 506.269012,855.757202 
	C520.414368,855.383789 534.577637,855.673096 548.732971,855.726624 
	C549.698486,855.730225 550.662415,856.141785 552.042725,856.465881 
M510.901306,875.350586 
	C505.107788,875.624207 502.608490,877.923828 502.424469,883.989014 
	C502.192505,891.634216 502.201721,899.296448 502.417755,906.942566 
	C502.590118,913.042603 505.423157,915.601624 511.531067,915.631531 
	C522.177490,915.683655 532.824585,915.675781 543.471008,915.621094 
	C549.597046,915.589661 551.556519,913.684204 551.621887,907.591553 
	C551.709412,899.441101 551.693237,891.288696 551.628845,883.137817 
	C551.583557,877.412964 549.561829,875.411499 543.756042,875.377563 
	C533.109741,875.315247 522.462769,875.353394 510.901306,875.350586 
z"/>
<path fill="#000000" opacity="1.000000" stroke="none" 
	d="
M651.385254,934.290039 
	C639.002258,922.332336 626.905518,910.657837 614.896362,898.893982 
	C608.942688,893.062012 608.829468,888.299011 615.203857,882.874817 
	C625.686829,873.954651 636.547729,865.479004 647.230408,856.792725 
	C648.196533,856.007080 649.240784,855.674194 650.445435,855.677002 
	C659.609558,855.698181 668.773743,855.708557 677.937683,855.759766 
	C678.345398,855.762024 678.751160,856.126404 679.531311,856.501892 
	C665.055420,868.191589 650.820557,879.686584 636.024414,891.634888 
	C650.296509,906.662720 665.876831,919.412720 680.143677,935.463318 
	C669.989258,934.918579 660.853027,936.315369 651.385254,934.290039 
z"/>
<path fill="#000000" opacity="1.000000" stroke="none" 
	d="
M606.331665,828.085571 
	C606.337585,861.900635 606.347351,895.226868 606.341919,928.553162 
	C606.340820,935.327393 606.314514,935.327393 599.407410,935.359985 
	C586.662964,935.420105 586.661987,935.420105 586.661621,922.865601 
	C586.660706,891.705505 586.659912,860.545471 586.661194,829.385376 
	C586.661499,821.659851 586.665222,821.659424 594.609375,821.649719 
	C596.608948,821.647278 598.636353,821.861816 600.602600,821.605530 
	C605.370178,820.984070 606.940002,823.192566 606.331665,828.085571 
z"/>
</svg>