<svg width="1200" height="630" viewBox="0 0 1200 630" fill="none" xmlns="http://www.w3.org/2000/svg">
  <rect width="1200" height="630" fill="#0F172A"/>

  <!-- Large Comb -->
  <rect x="200" y="150" width="120" height="330" rx="10" fill="white"/>
  <rect x="220" y="220" width="80" height="25" fill="#0F172A"/>
  <rect x="220" y="260" width="80" height="25" fill="#0F172A"/>
  <rect x="220" y="300" width="80" height="25" fill="#0F172A"/>
  <rect x="220" y="340" width="80" height="25" fill="#0F172A"/>
  <rect x="220" y="380" width="80" height="25" fill="#0F172A"/>
  <rect x="220" y="420" width="80" height="25" fill="#0F172A"/>

  <!-- Large Scissors -->
  <path d="M400 100 L550 280 L520 300 L400 200 L280 300 L250 280 Z" fill="white"/>
  <circle cx="280" cy="380" r="60" fill="white"/>
  <circle cx="280" cy="380" r="30" fill="#0F172A"/>
  <circle cx="520" cy="380" r="60" fill="white"/>
  <circle cx="520" cy="380" r="30" fill="#0F172A"/>
  <rect x="380" y="310" width="40" height="40" fill="#0F172A"/>

  <!-- BookB Text -->
  <text x="650" y="380" font-family="Arial, sans-serif" font-size="140" font-weight="bold" fill="white">BookB</text>

  <!-- Tagline -->
  <text x="650" y="450" font-family="Arial, sans-serif" font-size="40" fill="#3B82F6">Professional Salon Management</text>
  <text x="650" y="500" font-family="Arial, sans-serif" font-size="40" fill="#94A3B8">Starting at $20/month</text>
</svg>
