<svg width="32" height="32" viewBox="0 0 32 32" fill="none" xmlns="http://www.w3.org/2000/svg">
  <!-- BookB Icon - Comb and Scissors -->
  <rect width="32" height="32" fill="#0F172A"/>

  <!-- Comb -->
  <rect x="3" y="6" width="10" height="20" rx="1.5" fill="white"/>
  <rect x="4.5" y="10" width="7" height="1.5" fill="#0F172A"/>
  <rect x="4.5" y="12.5" width="7" height="1.5" fill="#0F172A"/>
  <rect x="4.5" y="15" width="7" height="1.5" fill="#0F172A"/>
  <rect x="4.5" y="17.5" width="7" height="1.5" fill="#0F172A"/>
  <rect x="4.5" y="20" width="7" height="1.5" fill="#0F172A"/>
  <rect x="4.5" y="22.5" width="7" height="1.5" fill="#0F172A"/>

  <!-- Scissors -->
  <path d="M18 4 L24 12 L22.5 13 L18 8.5 L13.5 13 L12 12 Z" fill="white"/>
  <circle cx="14" cy="18" r="4" fill="white"/>
  <circle cx="14" cy="18" r="2" fill="#0F172A"/>
  <circle cx="22" cy="18" r="4" fill="white"/>
  <circle cx="22" cy="18" r="2" fill="#0F172A"/>
  <rect x="17" y="14" width="2" height="2" fill="#0F172A"/>
</svg>
